<?xml version="1.0" encoding="utf-8"?>
<!-- Generator: Adobe Illustrator 24.1.0, SVG Export Plug-In . SVG Version: 6.00 Build 0)  -->
<svg version="1.1" id="Capa_1" xmlns="http://www.w3.org/2000/svg" xmlns:xlink="http://www.w3.org/1999/xlink" x="0px" y="0px"
	 viewBox="0 0 512 512" style="enable-background:new 0 0 512 512;" xml:space="preserve">
<style type="text/css">
	.st0{fill:#FE6885;}
</style>
<g>
	<g>
		<path class="st0" d="M257,90c-91,0-167,74-167,165s76,167,167,167s165-76,165-167S348,90,257,90z M225,300c8.3,0,15,6.7,15,15
			c0,8.3-6.7,15-15,15h-60c-8.3,0-15-6.7-15-15c0-38.2,22-50.2,38.1-59c14.1-7.7,21.9-11.9,21.9-31c0-8.3-6.7-15-15-15
			s-15,6.7-15,15c0,8.3-6.7,15-15,15s-15-6.7-15-15c0-24.8,20.2-45,45-45s45,20.2,45,45c0,36.9-21.7,48.7-37.5,57.4
			c-10,5.4-16.9,9.2-20.2,17.6H225z M377,270h-15v45c0,8.3-6.7,15-15,15c-8.3,0-15-6.7-15-15v-45h-45c-8.3,0-15-6.7-15-15v-60
			c0-8.3,6.7-15,15-15c8.3,0,15,6.7,15,15v45h30v-45c0-8.3,6.7-15,15-15c8.3,0,15,6.7,15,15v45h15c8.3,0,15,6.7,15,15
			C392,263.3,385.3,270,377,270z"/>
	</g>
</g>
<g>
	<g>
		<path class="st0" d="M467,60c-8.3,0-15,6.7-15,15v16.5C404,34.4,332.8,0,257,0C116.4,0,0,114.4,0,255c0,8.3,6.7,15,15,15
			s15-6.7,15-15C30,130.9,132.9,30,257,30c71,0,137.6,34,179.8,90H407c-8.3,0-15,6.7-15,15s6.7,15,15,15h60c8.3,0,15-6.7,15-15V75
			C482,66.7,475.3,60,467,60z"/>
	</g>
</g>
<g>
	<g>
		<path class="st0" d="M497,240c-8.3,0-14.8,6.7-14.8,15c0,124.1-101.1,227-225.2,227c-71,0-139.6-34-181.8-90H105
			c8.3,0,15-6.7,15-15c0-8.3-6.7-15-15-15H45c-8.3,0-15,6.7-15,15v60c0,8.3,6.7,15,15,15s15-6.7,15-15v-16.5
			c48,57,121.2,91.5,197,91.5c140.6,0,255-116.4,255-257C512,246.7,505.3,240,497,240z"/>
	</g>
</g>
</svg>
