<?xml version="1.0" encoding="utf-8"?>
<!-- Generator: Adobe Illustrator 24.1.0, SVG Export Plug-In . SVG Version: 6.00 Build 0)  -->
<svg version="1.1" id="Слой_1" xmlns="http://www.w3.org/2000/svg" xmlns:xlink="http://www.w3.org/1999/xlink" x="0px" y="0px"
	 viewBox="0 0 512 512" style="enable-background:new 0 0 512 512;" xml:space="preserve">
<style type="text/css">
	.st0{fill:#FE6885;}
</style>
<path class="st0" d="M377,233.7c0.9,0,1.7,0,2.6,0l0.2,0c4.8,0.1,9.5,0.4,14.2,0.9V60.4c0-33.3-27.1-60.4-60.4-60.4H71.4
	C38.1,0,11,27.1,11,60.4v347.5c0,33.3,27.1,60.4,60.4,60.4h175c-15.1-24.3-23-52-23-81C223.4,302.6,292.3,233.7,377,233.7z
	 M227.7,98.6h89.5c8.3,0,15,6.7,15,15s-6.7,15-15,15h-89.5c-8.3,0-15-6.7-15-15S219.4,98.6,227.7,98.6z M227.7,158.6h89.5
	c8.3,0,15,6.7,15,15s-6.7,15-15,15h-89.5c-8.3,0-15-6.7-15-15S219.4,158.6,227.7,158.6z M177.3,369.7H87.8c-8.3,0-15-6.7-15-15
	c0-8.3,6.7-15,15-15h89.5c8.3,0,15,6.7,15,15C192.3,362.9,185.6,369.7,177.3,369.7z M177.3,308.6H87.8c-8.3,0-15-6.7-15-15
	s6.7-15,15-15h89.5c8.3,0,15,6.7,15,15S185.6,308.6,177.3,308.6z M177.3,248.6H87.8c-8.3,0-15-6.7-15-15s6.7-15,15-15h89.5
	c8.3,0,15,6.7,15,15S185.6,248.6,177.3,248.6z M177.3,188.6H87.8c-8.3,0-15-6.7-15-15s6.7-15,15-15h89.5c8.3,0,15,6.7,15,15
	S185.6,188.6,177.3,188.6z M177.3,128.6H87.8c-8.3,0-15-6.7-15-15s6.7-15,15-15h89.5c8.3,0,15,6.7,15,15S185.6,128.6,177.3,128.6z
	 M212.7,233.6c0-8.3,6.7-15,15-15h43.1c8.3,0,15,6.7,15,15s-6.7,15-15,15h-43.1C219.4,248.6,212.7,241.9,212.7,233.6z"/>
<path class="st0" d="M465.8,299.9c-23-23.4-53.8-36.7-86.6-37.2l-0.2,0c-0.7,0-1.4,0-2,0c-68.7,0-124.6,55.9-124.6,124.7
	c0,27.3,8.7,53.2,25.1,75c23.8,31.6,60.1,49.7,99.5,49.7c68.7,0,124.6-55.9,124.6-124.7C501.5,354.4,488.8,323.4,465.8,299.9z
	 M430.2,367.1l-47.6,59.3c-3,3.7-7.3,5.6-11.7,5.6c-3.1,0-6.1-0.9-8.8-2.9l-35.5-25.7c-6.7-4.9-8.2-14.2-3.3-20.9
	c4.9-6.7,14.2-8.2,20.9-3.3l23.9,17.3l38.6-48.2c5.2-6.5,14.6-7.5,21.1-2.3C434.3,351.2,435.4,360.6,430.2,367.1z"/>
</svg>
