<?xml version="1.0" encoding="utf-8"?>
<!-- Generator: Adobe Illustrator 24.1.0, SVG Export Plug-In . SVG Version: 6.00 Build 0)  -->
<svg version="1.1" id="Capa_1" xmlns="http://www.w3.org/2000/svg" xmlns:xlink="http://www.w3.org/1999/xlink" x="0px" y="0px"
	 viewBox="0 0 612 612" style="enable-background:new 0 0 612 612;" xml:space="preserve">
<style type="text/css">
	.st0{fill:#FE6885;}
</style>
<g>
	<g>
		<path class="st0" d="M269.3,310.2c86.2,0,117.2-86.3,125.3-157.2c10-87.3-31.3-153-125.3-153C175.3,0,134,65.7,144,153
			C152.1,223.9,183.1,310.2,269.3,310.2z"/>
		<path class="st0" d="M457.7,346.1c2.8,0,5.5,0.1,8.3,0.2c-4.1-5.9-8.8-11-14.4-15.2c-16.6-12.4-38-16.4-57-23.9
			c-9.2-3.6-17.5-7.2-25.3-11.3c-26.2,28.7-60.3,43.7-100.1,43.7c-39.7,0-73.9-15-100.1-43.7c-7.8,4.1-16,7.7-25.3,11.3
			c-19,7.5-40.4,11.5-57,23.9c-28.6,21.4-36,69.5-41.9,102.3c-4.8,27.1-8,54.7-9,82.2c-0.7,21.3,9.8,24.3,27.6,30.7
			c22.3,8,45.4,14,68.6,18.9c44.8,9.5,91,16.7,136.9,17.1c22.3-0.2,44.6-2,66.8-4.8c-16.4-23.8-26.1-52.6-26.1-83.7
			C310,412.4,376.3,346.1,457.7,346.1z"/>
		<path class="st0" d="M457.7,375.7c-65.3,0-118.2,52.9-118.2,118.2S392.4,612,457.7,612s118.2-52.9,118.2-118.2
			C575.9,428.6,523,375.7,457.7,375.7z M509.4,514.1H478v31.4c0,11.2-9.1,20.3-20.3,20.3c-11.2,0-20.3-9.1-20.3-20.3v-31.4H406
			c-11.2,0-20.3-9.1-20.3-20.3c0-11.2,9.1-20.3,20.3-20.3h31.4v-31.4c0-11.2,9.1-20.3,20.3-20.3s20.3,9.1,20.3,20.3v31.4h31.4
			c11.2,0,20.3,9.1,20.3,20.3C529.7,505,520.6,514.1,509.4,514.1z"/>
	</g>
</g>
</svg>
