<?xml version="1.0" encoding="utf-8"?>
<!-- Generator: Adobe Illustrator 24.1.0, SVG Export Plug-In . SVG Version: 6.00 Build 0)  -->
<svg version="1.1" id="Слой_1" xmlns="http://www.w3.org/2000/svg" xmlns:xlink="http://www.w3.org/1999/xlink" x="0px" y="0px"
	 viewBox="0 0 512 512" style="enable-background:new 0 0 512 512;" xml:space="preserve">
<style type="text/css">
	.st0{fill:#F8F8F8;}
</style>
<path class="st0" d="M256,75c-24.8,0-45,20.2-45,45s20.2,45,45,45s45-20.2,45-45S280.8,75,256,75z"/>
<path class="st0" d="M256,0c-66.2,0-120,53.8-120,120c0,22.7,6.4,44.8,18.4,63.9L256,346l101.6-162.1c12.1-19.1,18.4-41.2,18.4-63.9
	C376,53.8,322.2,0,256,0z M256,195c-41.4,0-75-33.6-75-75s33.6-75,75-75s75,33.6,75,75S297.4,195,256,195z"/>
<path class="st0" d="M183,512h146l-11.5-91H194.2L183,512z"/>
<path class="st0" d="M198,391h50.9l-42.5-67.4L198,391z"/>
<path class="st0" d="M343.8,391H462l-37.5-90h-92.2L343.8,391z"/>
<path class="st0" d="M50,391h117.8l11.3-90H87.5L50,391z"/>
<path class="st0" d="M263.1,391h50.5l-8.5-66.5L263.1,391z"/>
<path class="st0" d="M164,421H37.5L0,512h152.8L164,421z"/>
<path class="st0" d="M474.5,421H347.7l11.5,91H512L474.5,421z"/>
</svg>
