<?xml version="1.0" encoding="utf-8"?>
<!-- Generator: Adobe Illustrator 24.1.0, SVG Export Plug-In . SVG Version: 6.00 Build 0)  -->
<svg version="1.1" id="Capa_1" xmlns="http://www.w3.org/2000/svg" xmlns:xlink="http://www.w3.org/1999/xlink" x="0px" y="0px"
	 viewBox="0 0 444.8 444.8" style="enable-background:new 0 0 444.8 444.8;" xml:space="preserve">
<style type="text/css">
	.st0{fill:#FE6885;}
</style>
<g>
	<path class="st0" d="M422,196.7L236.1,10.8C228.9,3.6,220.2,0,210.1,0c-9.9,0-18.5,3.6-25.7,10.8L163,32.3
		c-7.2,6.9-10.9,15.4-10.9,25.7c0,10.3,3.6,18.8,10.9,25.7l83.7,83.9h-201c-9.9,0-17.9,3.6-24.1,10.7s-9.3,15.8-9.3,25.8v36.5
		c0,10.1,3.1,18.7,9.3,25.8s14.2,10.7,24.1,10.7h201L163,360.9c-7.2,7.2-10.9,15.9-10.9,26c0,10.1,3.6,18.8,10.9,26l21.4,21.4
		c7.4,7,16,10.6,25.7,10.6c9.9,0,18.6-3.5,26-10.6L422,248.4c7-7,10.6-15.7,10.6-26C432.5,211.9,429,203.4,422,196.7z"/>
</g>
</svg>
