<?xml version="1.0" encoding="utf-8"?>
<!-- Generator: Adobe Illustrator 24.1.0, SVG Export Plug-In . SVG Version: 6.00 Build 0)  -->
<svg version="1.1" id="Слой_1" xmlns="http://www.w3.org/2000/svg" xmlns:xlink="http://www.w3.org/1999/xlink" x="0px" y="0px"
	 viewBox="0 0 384 384" style="enable-background:new 0 0 384 384;" xml:space="preserve">
<style type="text/css">
	.st0{fill:#2CBD65;}
</style>
<path class="st0" d="M144,240h96c26.5,0,48-21.5,48-48s-21.5-48-48-48h-96c-26.5,0-48,21.5-48,48S117.5,240,144,240z M144,176h96
	c8.8,0,16,7.2,16,16s-7.2,16-16,16h-96c-8.8,0-16-7.2-16-16S135.2,176,144,176z"/>
<path class="st0" d="M74.7,16L0,72v296h384V72l-74.7-56H74.7z M352,336H32V112h320V336z M42.7,80l42.7-32h213.3l42.7,32H42.7z"/>
<path class="st0" d="M256,272h64v32h-64V272z"/>
</svg>
