<?xml version="1.0" encoding="utf-8"?>
<!-- Generator: Adobe Illustrator 24.1.0, SVG Export Plug-In . SVG Version: 6.00 Build 0)  -->
<svg version="1.1" id="Слой_1" xmlns="http://www.w3.org/2000/svg" xmlns:xlink="http://www.w3.org/1999/xlink" x="0px" y="0px"
	 viewBox="0 0 512 512" style="enable-background:new 0 0 512 512;" xml:space="preserve">
<style type="text/css">
	.st0{fill:#FE6885;}
</style>
<path class="st0" d="M80,320h53.3c8.8,0,16-7.2,16-16v-53.3c0-8.8-7.2-16-16-16H80c-8.8,0-16,7.2-16,16V304
	C64,312.8,71.2,320,80,320z"/>
<path class="st0" d="M80,448h53.3c8.8,0,16-7.2,16-16v-53.3c0-8.8-7.2-16-16-16H80c-8.8,0-16,7.2-16,16V432
	C64,440.8,71.2,448,80,448z"/>
<path class="st0" d="M229.3,320h53.3c8.8,0,16-7.2,16-16v-53.3c0-8.8-7.2-16-16-16h-53.3c-8.8,0-16,7.2-16,16V304
	C213.3,312.8,220.5,320,229.3,320z"/>
<path class="st0" d="M229.3,448h53.3c8.8,0,16-7.2,16-16v-53.3c0-8.8-7.2-16-16-16h-53.3c-8.8,0-16,7.2-16,16V432
	C213.3,440.8,220.5,448,229.3,448z"/>
<path class="st0" d="M378.7,320H432c8.8,0,16-7.2,16-16v-53.3c0-8.8-7.2-16-16-16h-53.3c-8.8,0-16,7.2-16,16V304
	C362.7,312.8,369.8,320,378.7,320z"/>
<path class="st0" d="M448,64h-21.3V21.3c0-11.8-9.6-21.3-21.3-21.3H384c-11.8,0-21.3,9.6-21.3,21.3V64H149.3V21.3
	C149.3,9.6,139.8,0,128,0h-21.3C94.9,0,85.3,9.6,85.3,21.3V64H64C28.7,64,0,92.7,0,128v320c0,35.3,28.7,64,64,64h384
	c35.3,0,64-28.7,64-64V128C512,92.7,483.3,64,448,64z M469.3,448c0,11.8-9.6,21.3-21.3,21.3H64c-11.8,0-21.3-9.6-21.3-21.3V214.2
	h426.7V448z"/>
</svg>
