<?xml version="1.0" encoding="utf-8"?>
<!-- Generator: Adobe Illustrator 24.1.0, SVG Export Plug-In . SVG Version: 6.00 Build 0)  -->
<svg version="1.1" id="Capa_1" xmlns="http://www.w3.org/2000/svg" xmlns:xlink="http://www.w3.org/1999/xlink" x="0px" y="0px"
	 viewBox="0 0 512 512" style="enable-background:new 0 0 512 512;" xml:space="preserve">
<style type="text/css">
	.st0{fill:#FE6885;}
</style>
<g>
	<g>
		<path class="st0" d="M508.3,85.8c-3-3.6-7.6-5.8-12.3-5.8H119.9L106,27.9c-1.9-7-8.2-11.9-15.5-11.9H16C7.2,16,0,23.2,0,32
			s7.2,16,16,16h62.3L92,99.6c0,0.2,0,0.4,0,0.6l51.2,191.4c0,0,0,0,0,0.1l17.2,64.5c1.9,7,8.2,11.9,15.5,11.9h256
			c8.8,0,16-7.2,16-16s-7.2-16-16-16H188.3l-9-33.7L464.8,288c7.4-0.4,13.6-5.8,14.9-13.1l32-176C512.6,94.2,511.3,89.4,508.3,85.8z
			 M224,224c0,8.8-7.2,16-16,16s-16-7.2-16-16v-64c0-8.8,7.2-16,16-16s16,7.2,16,16V224z M320,224c0,8.8-7.2,16-16,16s-16-7.2-16-16
			v-64c0-8.8,7.2-16,16-16s16,7.2,16,16V224z M416,224c0,8.8-7.2,16-16,16s-16-7.2-16-16v-64c0-8.8,7.2-16,16-16s16,7.2,16,16V224z"
			/>
	</g>
</g>
<g>
	<g>
		<circle class="st0" cx="208" cy="448" r="48"/>
	</g>
</g>
<g>
	<g>
		<circle class="st0" cx="400" cy="448" r="48"/>
	</g>
</g>
</svg>
