<?xml version="1.0" encoding="utf-8"?>
<!-- Generator: Adobe Illustrator 24.1.0, SVG Export Plug-In . SVG Version: 6.00 Build 0)  -->
<svg version="1.1" id="Слой_1" xmlns="http://www.w3.org/2000/svg" xmlns:xlink="http://www.w3.org/1999/xlink" x="0px" y="0px"
	 viewBox="0 0 512 512" style="enable-background:new 0 0 512 512;" xml:space="preserve">
<style type="text/css">
	.st0{fill:#FE6885;}
</style>
<g id="Interface-2">
	<path class="st0" d="M264,120v24h192v-24c0-4.4-3.6-8-8-8H272C267.6,112,264,115.6,264,120z"/>
	<path class="st0" d="M216,48h64c4.4,0,8-3.6,8-8v-8h-80v8C208,44.4,211.6,48,216,48z"/>
	<path class="st0" d="M304,200h32v32h-32V200z"/>
	<path class="st0" d="M48,432h96v48H48V432z"/>
	<path class="st0" d="M352,336h-80c-13.3,0-24-10.7-24-24V120c0-13.3,10.7-24,24-24h80V56c0-13.3-10.7-24-24-24h-24v8
		c0,13.3-10.7,24-24,24h-64c-13.3,0-24-10.7-24-24v-8h-24c-13.3,0-24,10.7-24,24v133.8l19.5-33.7c8.8-15.3,28.4-20.6,43.7-11.7
		c15.3,8.8,20.6,28.4,11.7,43.7l-53.2,92l4.1,12.1c4.1,12.2,6.2,25.1,6.2,38v6.8c-0.1,16.1-3.4,32.1-9.8,46.9c0.6,0,1.2,0.2,1.8,0.2
		h160c13.3,0,24-10.7,24-24V336z"/>
	<path class="st0" d="M205.1,180.1c1.4-2.4,2.1-5.2,2.1-8c0-8.8-7.1-16-16-16c-5.7,0-11,3.1-13.9,8l-60,103.9l-13.9-8l24.5-42.5
		v-97.4h-10.8c-2.9,0-5.5,1.5-6.9,4l-44.7,77.4c-6.3,10.9-9.6,23.4-9.6,36V416h80v-8c0-1.4,0.4-2.9,1.1-4.1l8-13.4
		c0.9-1.6,1.9-3.3,2.8-5c7.9-15,12-31.6,12.1-48.5v-6.8c0-11.2-1.8-22.3-5.3-32.9l-5.2-15.5c-0.7-2.2-0.5-4.6,0.7-6.6L205.1,180.1z"
		/>
	<path class="st0" d="M456,312V160H264v152c0,4.4,3.6,8,8,8h176C452.4,320,456,316.4,456,312z M288,192c0-4.4,3.6-8,8-8h48
		c4.4,0,8,3.6,8,8v48c0,4.4-3.6,8-8,8h-48c-4.4,0-8-3.6-8-8V192z M432,280H288v-16h144V280z M432,248h-64v-16h64V248z M432,216h-64
		v-16h64V216z"/>
</g>
</svg>
