<?xml version="1.0" encoding="utf-8"?>
<!-- Generator: Adobe Illustrator 24.1.0, SVG Export Plug-In . SVG Version: 6.00 Build 0)  -->
<svg version="1.1" id="Capa_1" xmlns="http://www.w3.org/2000/svg" xmlns:xlink="http://www.w3.org/1999/xlink" x="0px" y="0px"
	 viewBox="0 0 512 512" style="enable-background:new 0 0 512 512;" xml:space="preserve">
<style type="text/css">
	.st0{fill:#FE6885;}
</style>
<g>
	<path class="st0" d="M1.3,52.3c67-0.1,134-0.1,200.9-0.2c40,0,80,0,120,0c2.7,0,5.3,0,9.5,0c-2.4,2.7-3.7,4.3-5.2,5.8
		c-21.5,21.6-43.2,43.1-64.6,64.8c-3.6,3.7-7.3,5.1-12.4,5.1c-54.2-0.2-108.5-0.1-162.7-0.1c-2.7,0-5.4,0-8.6,0
		c0,102.5,0,204.4,0,306.9c101.9,0,203.9,0,306.9,0c0-3,0-5.9,0-8.8c0-54.2,0.1-108.5-0.1-162.7c0-5.2,1.6-8.7,5.2-12.3
		c23.1-22.8,46-45.8,69.7-69.5c0,110.3,0,219.9,0,330c-2.2,0.1-4.4,0.3-6.6,0.3c-148.9,0-297.9,0-446.8,0c-1.7,0-3.5-0.2-5.2-0.3
		C1.3,358.2,1.3,205.2,1.3,52.3z"/>
	<path class="st0" d="M512.7,55.3c-4.2,16.9-16.8,27.7-28.4,39.3c-68.6,68.5-137.1,137.1-205.7,205.7c-1.9,1.9-3.9,3.7-5.7,5.4
		c-21.8-22-43.3-43.8-65.2-66c0.4-0.4,1.6-1.9,3-3.3c73-72.2,146.1-144.4,219-216.7C439.9,9.5,451.6,3.4,466,2.6
		c19.2-1.1,38,12.1,44.2,30.7c0.8,2.4,1.7,4.7,2.5,7C512.7,45.3,512.7,50.3,512.7,55.3z"/>
	<path class="st0" d="M235.9,340.5c-25.7,5.5-52.4,11.2-80.7,17.2c5.9-27.8,11.6-54.7,17.2-81.4
		C193.6,297.7,214.5,318.9,235.9,340.5z"/>
</g>
</svg>
