<?xml version="1.0" encoding="utf-8"?>
<!-- Generator: Adobe Illustrator 24.1.0, SVG Export Plug-In . SVG Version: 6.00 Build 0)  -->
<svg version="1.1" id="Capa_1" xmlns="http://www.w3.org/2000/svg" xmlns:xlink="http://www.w3.org/1999/xlink" x="0px" y="0px"
	 viewBox="0 0 512 512" style="enable-background:new 0 0 512 512;" xml:space="preserve">
<style type="text/css">
	.st0{fill:#F8F8F8;}
</style>
<g id="_x3C_Group_x3E__28_">
	<path class="st0" d="M376,60v60H136V60H61v452h390V60H376z M151,457.2l-40.6-40.6l21.2-21.2l19.4,19.4l49.4-49.4l21.2,21.2
		L151,457.2z M151,367.2l-40.6-40.6l21.2-21.2l19.4,19.4l49.4-49.4l21.2,21.2L151,367.2z M151,277.2l-40.6-40.6l21.2-21.2l19.4,19.4
		l49.4-49.4l21.2,21.2L151,277.2z M391,421H241v-30h150V421z M391,331H241v-30h150V331z M391,241H241v-30h150V241z"/>
	<path class="st0" d="M286,30c0-16.6-13.4-30-30-30c-16.6,0-30,13.4-30,30c-7.3,0-52.7,0-60,0v60h180c0-7.3,0-52.7,0-60
		C338.7,30,293.3,30,286,30z"/>
</g>
</svg>
