<?xml version="1.0" encoding="utf-8"?>
<!-- Generator: Adobe Illustrator 24.1.0, SVG Export Plug-In . SVG Version: 6.00 Build 0)  -->
<svg version="1.1" id="Capa_1" xmlns="http://www.w3.org/2000/svg" xmlns:xlink="http://www.w3.org/1999/xlink" x="0px" y="0px"
	 viewBox="0 0 512 512" style="enable-background:new 0 0 512 512;" xml:space="preserve">
<style type="text/css">
	.st0{fill:#F8F8F8;}
</style>
<g>
	<path class="st0" d="M451,60h-90V30h-62.6C292.2,12.5,275.6,0,256,0s-36.2,12.5-42.4,30H151v30H61v452h390V60z M181,60h60V45
		c0-8.3,6.7-15,15-15s15,6.7,15,15v15h60v30H181V60z M421,482H91V90h60v30h210V90h60V482z"/>
	<path class="st0" d="M151,234.8l-19.4-19.4l-21.2,21.2l40.6,40.6l70.6-70.6l-21.2-21.2L151,234.8z"/>
	<path class="st0" d="M151,324.8l-19.4-19.4l-21.2,21.2l40.6,40.6l70.6-70.6l-21.2-21.2L151,324.8z"/>
	<path class="st0" d="M151,414.8l-19.4-19.4l-21.2,21.2l40.6,40.6l70.6-70.6l-21.2-21.2L151,414.8z"/>
	<path class="st0" d="M241,211h150v30H241V211z"/>
	<path class="st0" d="M241,301h150v30H241V301z"/>
	<path class="st0" d="M241,391h150v30H241V391z"/>
</g>
</svg>
