<?xml version="1.0" encoding="utf-8"?>
<!-- Generator: Adobe Illustrator 24.1.0, SVG Export Plug-In . SVG Version: 6.00 Build 0)  -->
<svg version="1.1" id="Capa_1" xmlns="http://www.w3.org/2000/svg" xmlns:xlink="http://www.w3.org/1999/xlink" x="0px" y="0px"
	 viewBox="0 0 512 512" style="enable-background:new 0 0 512 512;" xml:space="preserve">
<style type="text/css">
	.st0{fill:#FE6885;}
</style>
<g>
	<g>
		<path class="st0" d="M467,0H45c-6.9,0-13.4,1.7-19.3,4.5L224.2,203c17,17,46.6,17,63.6,0L486.3,4.5C480.4,1.7,473.9,0,467,0z"/>
	</g>
</g>
<g>
	<g>
		<path class="st0" d="M507.5,25.7L352.2,181l155.3,155.3c2.8-5.9,4.5-12.4,4.5-19.3V45C512,38.1,510.3,31.6,507.5,25.7z"/>
	</g>
</g>
<g>
	<g>
		<path class="st0" d="M4.5,25.7C1.7,31.6,0,38.1,0,45v272c0,6.9,1.7,13.4,4.5,19.3L159.8,181L4.5,25.7z"/>
	</g>
</g>
<g>
	<g>
		<path class="st0" d="M331,202.2l-22,22c-29.2,29.2-76.8,29.2-106.1,0l-22-22L25.7,357.5c5.9,2.8,12.4,4.5,19.3,4.5h84.3
			c18.6-52.3,68.1-90,126.7-90s108.1,37.7,126.7,90H467c6.9,0,13.4-1.7,19.3-4.5L331,202.2z"/>
	</g>
</g>
<g>
	<g>
		<path class="st0" d="M256,302c-57.9,0-105,47.1-105,105s47.1,105,105,105s105-47.1,105-105S313.9,302,256,302z M301,422h-53.8
			l4.4,4.4c5.9,5.9,5.9,15.4,0,21.2c-5.9,5.9-15.4,5.9-21.2,0l-30-30c-5.8-5.8-5.9-15.4,0-21.2l30-30c5.9-5.9,15.4-5.9,21.2,0
			s5.9,15.4,0,21.2l-4.4,4.4H301c8.3,0,15,6.7,15,15S309.3,422,301,422z"/>
	</g>
</g>
</svg>
