<?xml version="1.0" encoding="utf-8"?>
<!-- Generator: Adobe Illustrator 24.1.0, SVG Export Plug-In . SVG Version: 6.00 Build 0)  -->
<svg version="1.1" id="Слой_1" xmlns="http://www.w3.org/2000/svg" xmlns:xlink="http://www.w3.org/1999/xlink" x="0px" y="0px"
	 viewBox="0 0 512 512" style="enable-background:new 0 0 512 512;" xml:space="preserve">
<style type="text/css">
	.st0{fill:#2CBD65;}
</style>
<path class="st0" d="M42.7,469.3V106.7H0v384C0,502.4,9.6,512,21.3,512H512v-42.7H42.7z"/>
<path class="st0" d="M192,298.7c0-11.8-9.6-21.3-21.3-21.3h-64c-11.8,0-21.3,9.6-21.3,21.3V448H192V298.7z"/>
<path class="st0" d="M341.3,213.3c0-11.8-9.6-21.3-21.3-21.3h-64c-11.8,0-21.3,9.6-21.3,21.3V448h106.7V213.3z"/>
<path class="st0" d="M490.7,128c0-11.8-9.6-21.3-21.3-21.3h-64c-11.8,0-21.3,9.6-21.3,21.3v320h106.7V128z"/>
</svg>
