<?xml version="1.0" encoding="utf-8"?>
<!-- Generator: Adobe Illustrator 24.1.0, SVG Export Plug-In . SVG Version: 6.00 Build 0)  -->
<svg version="1.1" id="Layer_1" xmlns="http://www.w3.org/2000/svg" xmlns:xlink="http://www.w3.org/1999/xlink" x="0px" y="0px"
	 viewBox="0 0 512 512" style="enable-background:new 0 0 512 512;" xml:space="preserve">
<style type="text/css">
	.st0{fill:#F8F8F8;}
</style>
<g>
	<g>
		<path class="st0" d="M453.5,262.1c16.6-12.3,24.3-32.6,20.5-52.3c14.3-13.9,19.7-35,13.1-54.6s-23.5-33.2-43.3-35.7
			c-6.8-13.7-19.9-23.1-34.4-27.1C374.3,37.1,316.4,2,253.1,0.1C141.4-3,52.1,87,52.1,196v227.8c-18.5,18.9-30,44.8-30,73.3
			c0,8.3,6.7,15,15,15h420c8.3,0,15-6.7,15-15c0-28.5-11.5-54.3-30-73.3V268.3C446,266.7,449.9,264.8,453.5,262.1z M215.1,180.1
			c12.9-11.8,23.7-26.2,31.6-41.9c14,30,37.6,56.1,68.1,66.6c1.7,2.2,3.2,4.6,5.2,6.5c-3,17.3,3.3,34.7,16.3,46.9
			c-8.7,42.4-45.5,72.8-89.1,72.8c-44.8,0-82.6-32.1-90-76.2l-7.4-44.4C173,208.1,195.7,197.7,215.1,180.1z M53.6,482
			c6-29.3,29.2-52.4,58.5-58.4V482H53.6z M352.1,482h-210v-60h30c24.8,0,45-21.2,45-46v-19.2c9.7,2.5,19.6,4.2,30,4.2
			c10.4,0,20.3-1.7,30-4.2V376c0,24.8,20.2,46,45,46h30L352.1,482L352.1,482z M382.1,482v-58.4c29.3,6,52.5,29,58.5,58.4H382.1z
			 M435.6,238c-8.6,6.4-20.4,6-28.5-1c-5.7-4.8-14.1-4.8-19.7,0.2c-8.1,7.1-19.8,7.7-28.5,1.5c-8.8-6.2-12-17.5-7.9-27.5
			c2.9-6.9,0.2-14.9-6.3-18.7c-9.3-5.4-13.5-16.4-10.2-26.7c3-9.7,11.9-16,21.8-16c0.6,0,1.2,0,1.8,0.1c7.3,0.4,14.2-4.4,15.8-11.7
			c2.3-10.5,11.4-17.9,22.2-18c9.3-0.1,20,7.1,22.5,17.6c1.8,7.3,8.5,12.1,16,11.4c10.5-1.1,20.5,5.3,24,15.5s-0.6,21.2-9.8,26.9
			c-6.4,3.9-8.9,11.9-5.9,18.8C447.3,220.3,444.3,231.6,435.6,238z"/>
	</g>
</g>
<g>
	<g>
		<circle class="st0" cx="397.1" cy="181" r="15"/>
	</g>
</g>
</svg>
