<?xml version="1.0" encoding="utf-8"?>
<!-- Generator: Adobe Illustrator 24.1.0, SVG Export Plug-In . SVG Version: 6.00 Build 0)  -->
<svg version="1.1" id="Capa_1" xmlns="http://www.w3.org/2000/svg" xmlns:xlink="http://www.w3.org/1999/xlink" x="0px" y="0px"
	 viewBox="0 0 512 512" style="enable-background:new 0 0 512 512;" xml:space="preserve">
<style type="text/css">
	.st0{fill:#FE6885;}
</style>
<g>
	<g>
		<rect x="86.6" y="472.8" class="st0" width="331.3" height="37.6"/>
	</g>
</g>
<g>
	<g>
		<path class="st0" d="M311.8,169.7h-116c-10.4,0-18.8,8.4-18.8,18.8s8.4,18.8,18.8,18.8h116.1c10.4,0,18.8-8.4,18.8-18.8
			S322.2,169.7,311.8,169.7z"/>
	</g>
</g>
<g>
	<g>
		<path class="st0" d="M399.7,257.6H195.8c-10.4,0-18.8,8.4-18.8,18.8s8.4,18.8,18.8,18.8h203.9c10.4,0,18.8-8.4,18.8-18.8
			S410.1,257.6,399.7,257.6z"/>
	</g>
</g>
<g>
	<g>
		<path class="st0" d="M500.9,3.9c-6.8-3-14.7-1.8-20.2,3.1L428,53.6L375.2,6.4c-7.1-6.4-18-6.4-25.1,0l-52.7,47.1L244.7,6.4
			c-7.1-6.4-17.9-6.4-25.1,0l-52.8,47.2L114.1,6.9c-5.5-4.9-13.4-6.1-20.2-3.1S82.8,13.6,82.8,21v335.1h-64
			C8.4,356.1,0,364.5,0,374.9v45.8c0,49.5,40.3,89.7,89.7,89.7v-37.6c-28.7,0-52.1-23.4-52.1-52.1v-27h294.9v27
			c0,49.5,40.3,89.7,89.7,89.7s89.7-40.3,89.7-89.7V21C512,13.6,507.7,6.9,500.9,3.9z M474.4,420.7c0,28.7-23.4,52.1-52.1,52.1
			s-52.1-23.4-52.1-52.1v-45.8c0-10.4-8.4-18.8-18.8-18.8H120.5V62.8l34,30c7.2,6.3,17.9,6.3,25-0.1l52.7-47.1l52.7,47.1
			c7.1,6.4,18,6.4,25.1,0l52.7-47.1l52.7,47.1c7.1,6.4,17.9,6.4,25,0.1l34-30L474.4,420.7L474.4,420.7z"/>
	</g>
</g>
</svg>
