<?xml version="1.0" encoding="utf-8"?>
<!-- Generator: Adobe Illustrator 24.1.0, SVG Export Plug-In . SVG Version: 6.00 Build 0)  -->
<svg version="1.1" id="Capa_1" xmlns="http://www.w3.org/2000/svg" xmlns:xlink="http://www.w3.org/1999/xlink" x="0px" y="0px"
	 viewBox="0 0 512 512" style="enable-background:new 0 0 512 512;" xml:space="preserve">
<style type="text/css">
	.st0{fill:#FE6885;}
</style>
<g>
	<g>
		<path class="st0" d="M85.4,256c0,2.9,1.2,5.7,3.3,7.7l256,245.3c2.1,2,4.7,3,7.4,3c2.7,0,5.4-1,7.5-3.1l64-64
			c2-2.1,3.1-4.8,3.1-7.7s-1.2-5.6-3.3-7.6L239.6,256L423.4,82.5c2-2,3.3-4.7,3.3-7.6c0.1-2.9-1.1-5.7-3.1-7.7l-64-64
			C355.5-1,348.9-1,344.7,3l-256,245.3C86.6,250.3,85.4,253.1,85.4,256z"/>
	</g>
</g>
</svg>
