<?xml version="1.0" encoding="utf-8"?>
<!-- Generator: Adobe Illustrator 24.1.0, SVG Export Plug-In . SVG Version: 6.00 Build 0)  -->
<svg version="1.1" id="Capa_1" xmlns="http://www.w3.org/2000/svg" xmlns:xlink="http://www.w3.org/1999/xlink" x="0px" y="0px"
	 viewBox="0 0 512 512" style="enable-background:new 0 0 512 512;" xml:space="preserve">
<style type="text/css">
	.st0{fill:#FE6885;}
</style>
<g>
	<g>
		<path class="st0" d="M437.3,192h-32v-42.7C405.3,67,338.3,0,256,0S106.7,67,106.7,149.3V192h-32c-5.9,0-10.7,4.8-10.7,10.7v266.7
			c0,23.5,19.1,42.7,42.7,42.7h298.7c23.5,0,42.7-19.1,42.7-42.7V202.7C448,196.8,443.2,192,437.3,192z M287.9,414.8
			c0.3,3-0.6,6-2.7,8.3c-2,2.3-4.9,3.6-7.9,3.6h-42.7c-3,0-5.9-1.3-7.9-3.6s-3-5.3-2.7-8.3l6.7-60.5c-10.9-7.9-17.5-20.5-17.5-34.3
			c0-23.5,19.1-42.7,42.7-42.7s42.7,19.1,42.7,42.7c0,13.8-6.5,26.4-17.5,34.3L287.9,414.8z M341.3,192H170.7v-42.7
			c0-47.1,38.3-85.3,85.3-85.3s85.3,38.3,85.3,85.3V192z"/>
	</g>
</g>
</svg>
