<?xml version="1.0" encoding="utf-8"?>
<!-- Generator: Adobe Illustrator 24.1.0, SVG Export Plug-In . SVG Version: 6.00 Build 0)  -->
<svg version="1.1" id="Layer_1" xmlns="http://www.w3.org/2000/svg" xmlns:xlink="http://www.w3.org/1999/xlink" x="0px" y="0px"
	 viewBox="0 0 512 512" style="enable-background:new 0 0 512 512;" xml:space="preserve">
<style type="text/css">
	.st0{fill:#2CBD65;}
</style>
<g>
	<g>
		<path class="st0" d="M63,33C28.3,33,0,61.3,0,96s28.3,63,63,63s63-28.3,63-63S97.7,33,63,33z"/>
	</g>
</g>
<g>
	<g>
		<path class="st0" d="M63,193c-34.7,0-63,28.3-63,63s28.3,63,63,63s63-28.3,63-63S97.7,193,63,193z"/>
	</g>
</g>
<g>
	<g>
		<path class="st0" d="M63,353c-34.7,0-63,28.3-63,63s28.3,63,63,63s63-28.3,63-63S97.7,353,63,353z"/>
	</g>
</g>
<g>
	<g>
		<path class="st0" d="M465,49H207c-25.9,0-47,21.1-47,47s21.1,47,47,47h258c25.9,0,47-21.1,47-47S490.9,49,465,49z"/>
	</g>
</g>
<g>
	<g>
		<path class="st0" d="M465,209H207c-25.9,0-47,21.1-47,47s21.1,47,47,47h258c25.9,0,47-21.1,47-47S490.9,209,465,209z"/>
	</g>
</g>
<g>
	<g>
		<path class="st0" d="M465,369H207c-25.9,0-47,21.1-47,47s21.1,47,47,47h258c25.9,0,47-21.1,47-47S490.9,369,465,369z"/>
	</g>
</g>
</svg>
