<?xml version="1.0" encoding="iso-8859-1"?>
<!-- Generator: Adobe Illustrator 19.0.0, SVG Export Plug-In . SVG Version: 6.00 Build 0)  -->
<svg version="1.1" id="Layer_1" xmlns="http://www.w3.org/2000/svg" xmlns:xlink="http://www.w3.org/1999/xlink" x="0px" y="0px"
	 viewBox="0 0 512.001 512.001" style="enable-background:new 0 0 512.001 512.001;" xml:space="preserve">
<g>
	<g>
		<path d="M491.655,214.322c-0.527-0.254-53.449-25.903-115.87-68.334c-37.89-25.756-71.077-24.233-92.243-18.421
			c-12.229,3.357-21.841,8.438-28.342,12.628c-20.918-12.1-44.035-16.645-67.472-13.161c-21.093,3.137-37.135,11.804-44.821,16.693
			c-2.972,1.891-5.624,3.495-8.109,4.905L0,225.131l129.43,114.776c21.451,19.023,45.451,32.382,71.331,39.704
			c21.257,6.015,40.872,8.363,58.557,8.363c29.325,0,53.335-6.464,70.649-13.403c13.804-5.532,26.829-13.648,38.712-24.122
			l143.322-126.323L491.655,214.322z M255.645,270.701c-41.81,0-95.039-13.021-139.152-26.585
			c41.786-6.786,96.823-14.141,139.122-14.141c42.32,0,97.263,7.363,138.933,14.152
			C350.578,257.687,297.483,270.701,255.645,270.701z"/>
	</g>
</g>
<g>
</g>
<g>
</g>
<g>
</g>
<g>
</g>
<g>
</g>
<g>
</g>
<g>
</g>
<g>
</g>
<g>
</g>
<g>
</g>
<g>
</g>
<g>
</g>
<g>
</g>
<g>
</g>
<g>
</g>
</svg>
