<?xml version="1.0" encoding="utf-8"?>
<!-- Generator: Adobe Illustrator 24.1.0, SVG Export Plug-In . SVG Version: 6.00 Build 0)  -->
<svg version="1.1" id="Capa_1" xmlns="http://www.w3.org/2000/svg" xmlns:xlink="http://www.w3.org/1999/xlink" x="0px" y="0px"
	 viewBox="0 0 512 512" style="enable-background:new 0 0 512 512;" xml:space="preserve">
<style type="text/css">
	.st0{fill:#FE6885;}
</style>
<g>
	<g>
		<path class="st0" d="M469.3,170.7h-5.9l-73.3-128c-5.7-9.9-14.8-17-25.8-19.9c-10.9-2.9-22.3-1.4-32.1,4.3L21.1,208.2
			C1,219.9-6,246,5.6,266.3l5.3,9.2l0,0l8.8,15.4L64,368.3V448c0,23.5,19.1,42.7,42.7,42.7h362.7c23.5,0,42.7-19.1,42.7-42.7V213.3
			C512,189.8,492.9,170.7,469.3,170.7z M64,325.3l-8.1-14.2l8.1-4.7V325.3z M64,213.3v19.1l-39.9,23.2c-5.8-10.2-2.3-23.2,7.7-29
			l32.7-19C64.3,209.5,64,211.4,64,213.3z M403.4,108.7l35.5,61.9H297L403.4,108.7z M343,45.5c4.8-2.8,10.5-3.6,15.8-2.1
			c5.4,1.5,10,5,12.8,9.9l0,0L170.1,170.7H128L343,45.5z M256,352c0,5.9-4.8,10.7-10.7,10.7H138.7c-5.9,0-10.7-4.8-10.7-10.7
			s4.8-10.7,10.7-10.7h106.7C251.2,341.3,256,346.1,256,352z M288,426.7H138.7c-5.9,0-10.7-4.8-10.7-10.7s4.8-10.7,10.7-10.7H288
			c5.9,0,10.7,4.8,10.7,10.7S293.9,426.7,288,426.7z M404,426.7c-7,0-13.8-1.6-20-4.8c-6.2,3.1-13,4.8-20,4.8
			c-24.3,0-44-19.1-44-42.7s19.7-42.7,44-42.7c7,0,13.8,1.6,20,4.8c6.2-3.1,13-4.8,20-4.8c24.3,0,44,19.1,44,42.7
			S428.3,426.7,404,426.7z"/>
	</g>
</g>
</svg>
