<?xml version="1.0" encoding="utf-8"?>
<!-- Generator: Adobe Illustrator 24.1.0, SVG Export Plug-In . SVG Version: 6.00 Build 0)  -->
<svg version="1.1" id="Capa_1" xmlns="http://www.w3.org/2000/svg" xmlns:xlink="http://www.w3.org/1999/xlink" x="0px" y="0px"
	 viewBox="0 0 512 512" style="enable-background:new 0 0 512 512;" xml:space="preserve">
<style type="text/css">
	.st0{fill:#F8F8F8;}
</style>
<path class="st0" d="M301.2,226.7c25,25,25,65.5,0,90.5c-25,25-65.5,25-90.5,0c-25-25-25-65.5,0-90.5S276.3,201.7,301.2,226.7"/>
<path class="st0" d="M448,96h-44.2l-32-64H140.2l-32,64l-44.2,0.1c-35.2,0.1-63.9,28.8-63.9,64L0,416c0,35.3,28.7,64,64,64h384
	c35.3,0,64-28.7,64-64V160C512,124.7,483.3,96,448,96z M256,400c-70.6,0-128-57.4-128-128s57.4-128,128-128s128,57.4,128,128
	S326.6,400,256,400L256,400z"/>
</svg>
