<?xml version="1.0" encoding="utf-8"?>
<!-- Generator: Adobe Illustrator 24.1.0, SVG Export Plug-In . SVG Version: 6.00 Build 0)  -->
<svg version="1.1" id="Capa_1" xmlns="http://www.w3.org/2000/svg" xmlns:xlink="http://www.w3.org/1999/xlink" x="0px" y="0px"
	 viewBox="0 0 484.4 484.4" style="enable-background:new 0 0 484.4 484.4;" xml:space="preserve">
<style type="text/css">
	.st0{fill:#FE6885;}
</style>
<g>
	<path class="st0" d="M483.6,457.8l-7.7-38.9c-3.1-15.4-15.1-27.4-30.5-30.5l-10.5-2.1c-6-1.2-10.7-5.9-12-11.9l-2-9.6
		c-0.6-3.1,0.5-6.3,2.9-8.3c9.4-7.8,18.1-19.4,23.1-33c6.9-1.3,13.3-7.9,15.3-17.1c2.5-11.4-2.5-22.2-11.2-24.2c-0.1,0-0.2,0-0.3,0
		c-2.6-29.6-14-51.5-52-51.5c-37.3,0-49.1,21.9-51.9,51.5c-0.1,0-0.2,0-0.4,0c-8.7,1.9-13.7,12.8-11.2,24.2
		c2,9.2,8.4,15.9,15.3,17.1c5,13.6,13.7,25.1,23.1,33c2.4,2,3.5,5.2,2.9,8.3l-2,9.6c-1.2,6-6,10.7-12,11.9l-10.5,2.1
		c-15.4,3-27.4,15.1-30.5,30.5l-7.7,38.9c-1.3,6.5,0.4,13.3,4.6,18.4c4.2,5.1,10.5,8.1,17.2,8.1h126.1c6.6,0,12.9-3,17.2-8.1
		C483.2,471.1,484.9,464.4,483.6,457.8z"/>
	<path class="st0" d="M162.7,419c-3.1-15.4-15.1-27.4-30.5-30.5l-10.5-2.1c-6-1.2-10.7-5.9-12-11.9l-2-9.6c-0.6-3.1,0.5-6.3,2.9-8.3
		c9.4-7.8,18.1-19.4,23.1-33c6.9-1.3,13.3-7.9,15.3-17.1c2.5-11.4-2.5-22.2-11.2-24.2c-0.1,0-0.2,0-0.3,0c-2.6-29.6-14-51.5-52-51.5
		c-37.3,0-49.1,21.9-51.9,51.5c-0.1,0-0.2,0-0.4,0c-8.7,1.9-13.7,12.8-11.2,24.2c2,9.2,8.4,15.9,15.3,17.1c5,13.6,13.7,25.1,23.1,33
		c2.4,2,3.5,5.2,2.9,8.3l-2,9.6c-1.2,6-6,10.7-12,11.9L39,388.5c-15.4,3-27.4,15.1-30.5,30.5l-7.7,38.9c-1.3,6.5,0.4,13.3,4.6,18.4
		c4.2,5.1,10.5,8.1,17.2,8.1h126.1c6.6,0,12.9-3,17.2-8.1c4.2-5.1,5.9-11.9,4.6-18.4L162.7,419z"/>
	<path class="st0" d="M334.5,253.3c1.7-1.7,2-4.3,0.7-6.4l-17.7-36.2h24.6c12.7,0,23-10.3,23-23v-104c0-12.7-10.3-23-23-23h-57.2
		V127c0,24.1-19.6,43.6-43.6,43.6h-68l-17.6,11.8v5.4c0,12.7,10.3,23,23,23h74.3l75.2,43.1C330.1,255.3,332.8,255,334.5,253.3z"/>
	<path class="st0" d="M77.8,150h24.6l-18.2,36.4c-1.3,2-1,4.7,0.7,6.4c1,1,2.3,1.4,3.6,1.4c1,0,2-0.3,2.8-0.9L167,150h74.3
		c12.7,0,23-10.3,23-23V23c0-12.7-10.3-23-23-23H77.8c-12.7,0-23,10.3-23,23V127C54.8,139.7,65.1,150,77.8,150z M205.3,57.8
		c9.5,0,17.2,7.7,17.2,17.2c0,9.5-7.7,17.2-17.2,17.2s-17.2-7.7-17.2-17.2C188.1,65.5,195.8,57.8,205.3,57.8z M159.5,57.8
		c9.5,0,17.2,7.7,17.2,17.2c0,9.5-7.7,17.2-17.2,17.2s-17.2-7.7-17.2-17.2C142.3,65.5,150,57.8,159.5,57.8z M113.7,57.8
		c9.5,0,17.2,7.7,17.2,17.2c0,9.5-7.7,17.2-17.2,17.2c-9.5,0-17.2-7.7-17.2-17.2C96.5,65.5,104.2,57.8,113.7,57.8z"/>
</g>
</svg>
