<?xml version="1.0" encoding="utf-8"?>
<!-- Generator: Adobe Illustrator 24.1.0, SVG Export Plug-In . SVG Version: 6.00 Build 0)  -->
<svg version="1.1" id="Capa_1" xmlns="http://www.w3.org/2000/svg" xmlns:xlink="http://www.w3.org/1999/xlink" x="0px" y="0px"
	 viewBox="0 0 512 512" style="enable-background:new 0 0 512 512;" xml:space="preserve">
<style type="text/css">
	.st0{fill:#F8F8F8;}
</style>
<g>
	<g>
		<path class="st0" d="M497,25c-38.6,0-460.6,0-482,0C6.7,25,0,31.7,0,40s6.7,15,15,15h36v417c0,5,2.5,9.7,6.7,12.5
			c4.2,2.8,9.5,3.3,14.1,1.3l89.2-37.5l89.2,37.5c3.7,1.6,7.9,1.6,11.6,0l89.2-37.5l89.2,37.5c4.6,2,9.9,1.5,14.1-1.3
			c4.2-2.8,6.7-7.5,6.7-12.5V55h36c8.3,0,15-6.7,15-15S505.3,25,497,25z M431,449.4l-74.2-31.2c-3.7-1.6-7.9-1.6-11.6,0L256,455.7
			l-89.2-37.5c-3.7-1.6-7.9-1.6-11.6,0L81,449.4V55h350V449.4z"/>
	</g>
</g>
<g>
	<g>
		<path class="st0" d="M331,105H181c-8.3,0-15,6.7-15,15s6.7,15,15,15h150c8.3,0,15-6.7,15-15S339.3,105,331,105z"/>
	</g>
</g>
<g>
	<g>
		<path class="st0" d="M366,225H226c-8.3,0-15,6.7-15,15s6.7,15,15,15h140c8.3,0,15-6.7,15-15S374.3,225,366,225z"/>
	</g>
</g>
<g>
	<g>
		<circle class="st0" cx="148" cy="240" r="20"/>
	</g>
</g>
<g>
	<g>
		<path class="st0" d="M366,305H226c-8.3,0-15,6.7-15,15s6.7,15,15,15h140c8.3,0,15-6.7,15-15S374.3,305,366,305z"/>
	</g>
</g>
<g>
	<g>
		<circle class="st0" cx="148" cy="320" r="20"/>
	</g>
</g>
</svg>
