<?xml version="1.0" encoding="utf-8"?>
<!-- Generator: Adobe Illustrator 24.1.0, SVG Export Plug-In . SVG Version: 6.00 Build 0)  -->
<svg version="1.1" id="Capa_1" xmlns="http://www.w3.org/2000/svg" xmlns:xlink="http://www.w3.org/1999/xlink" x="0px" y="0px"
	 viewBox="0 0 512 512" style="enable-background:new 0 0 512 512;" xml:space="preserve">
<style type="text/css">
	.st0{fill:#FE6885;}
</style>
<g>
	<g>
		<path class="st0" d="M423.4,248.3L167.4,3c-4.2-4-10.8-4-14.9,0.2l-64,64c-2,2-3.2,4.8-3.1,7.7c0,2.9,1.3,5.6,3.3,7.6L272.5,256
			L88.7,429.6c-2.1,2-3.3,4.7-3.3,7.6c0,2.9,1.1,5.6,3.1,7.7l64,64c2.1,2.1,4.8,3.1,7.5,3.1c2.7,0,5.3-1,7.4-3l256-245.3
			c2.1-2,3.3-4.8,3.3-7.7C426.7,253.1,425.5,250.3,423.4,248.3z"/>
	</g>
</g>
</svg>
