<?xml version="1.0" encoding="utf-8"?>
<!-- Generator: Adobe Illustrator 24.1.0, SVG Export Plug-In . SVG Version: 6.00 Build 0)  -->
<svg version="1.1" id="Layer_1" xmlns="http://www.w3.org/2000/svg" xmlns:xlink="http://www.w3.org/1999/xlink" x="0px" y="0px"
	 viewBox="0 0 512 512" style="enable-background:new 0 0 512 512;" xml:space="preserve">
<style type="text/css">
	.st0{fill:#FFFFFF;}
</style>
<g>
	<g>
		<rect x="139.6" y="372.4" class="st0" width="232.7" height="46.5"/>
	</g>
</g>
<g>
	<g>
		<polygon class="st0" points="139.6,465.5 139.6,488.7 139.6,512 372.4,512 372.4,488.7 372.4,465.5 		"/>
	</g>
</g>
<g>
	<g>
		<path class="st0" d="M507.3,133.8L413.8,9.3C409.4,3.4,402.5,0,395.2,0h-38.4v23.3v23.3v147.4c0,12.9-10.4,23.3-23.3,23.3H116.4
			c-12.9,0-23.3-10.4-23.3-23.3V46.5V23.3V0H23.3C10.4,0,0,10.4,0,23.3v465.5C0,501.6,10.4,512,23.3,512h69.8v-23.3v-23.3v-23.3
			v-93.1c0-12.9,10.4-23.3,23.3-23.3h279.3c12.9,0,23.3,10.4,23.3,23.3v93.1v23.3v23.3V512h69.8c12.9,0,23.3-10.4,23.3-23.3V147.8
			C512,142.8,510.4,137.9,507.3,133.8z"/>
	</g>
</g>
<g>
	<g>
		<polygon class="st0" points="139.6,0 139.6,23.3 139.6,46.5 139.6,170.7 310.3,170.7 310.3,46.5 310.3,23.3 310.3,0 		"/>
	</g>
</g>
</svg>
