<?xml version="1.0" encoding="utf-8"?>
<!-- Generator: Adobe Illustrator 24.1.0, SVG Export Plug-In . SVG Version: 6.00 Build 0)  -->
<svg version="1.1" id="Capa_1" xmlns="http://www.w3.org/2000/svg" xmlns:xlink="http://www.w3.org/1999/xlink" x="0px" y="0px"
	 viewBox="0 0 512 512" style="enable-background:new 0 0 512 512;" xml:space="preserve">
<style type="text/css">
	.st0{fill:#F8F8F8;}
</style>
<g>
	<g>
		<path class="st0" d="M256,512c-68.4,0-132.7-26.6-181-75C26.6,388.7,0,324.4,0,256S26.6,123.3,75,75C123.3,26.6,187.6,0,256,0
			s132.7,26.6,181,75c48.4,48.4,75,112.6,75,181s-26.6,132.7-75,181C388.7,485.4,324.4,512,256,512L256,512z M256,30
			c-60.4,0-117.1,23.5-159.8,66.2S30,195.6,30,256s23.5,117.1,66.2,159.8S195.6,482,256,482s117.1-23.5,159.8-66.2
			S482,316.4,482,256s-23.5-117.1-66.2-159.8S316.4,30,256,30z"/>
	</g>
	<g>
		<path class="st0" d="M241,60h30v40h-30V60z"/>
	</g>
	<g>
		<path class="st0" d="M355.6,135.2l28.3-28.3l21.2,21.2l-28.3,28.3L355.6,135.2z"/>
	</g>
	<g>
		<path class="st0" d="M411.9,241h40v30h-40V241z"/>
	</g>
	<g>
		<path class="st0" d="M355.6,376.9l21.2-21.2l28.3,28.3l-21.2,21.2L355.6,376.9z"/>
	</g>
	<g>
		<path class="st0" d="M241,411.9h30v40h-30V411.9z"/>
	</g>
	<g>
		<path class="st0" d="M106.8,383.9l28.3-28.3l21.2,21.2L128,405.1L106.8,383.9z"/>
	</g>
	<g>
		<path class="st0" d="M60,241h40v30H60V241z"/>
	</g>
	<g>
		<path class="st0" d="M106.8,128l21.2-21.2l28.3,28.3l-21.2,21.2L106.8,128z"/>
	</g>
	<g>
		<path class="st0" d="M361.9,271H241V150.1h30V241h90.9V271z"/>
	</g>
</g>
</svg>
