<?xml version="1.0" encoding="utf-8"?>
<!-- Generator: Adobe Illustrator 24.1.0, SVG Export Plug-In . SVG Version: 6.00 Build 0)  -->
<svg version="1.1" id="Capa_1" xmlns="http://www.w3.org/2000/svg" xmlns:xlink="http://www.w3.org/1999/xlink" x="0px" y="0px"
	 viewBox="0 0 512 512" style="enable-background:new 0 0 512 512;" xml:space="preserve">
<style type="text/css">
	.st0{fill:#F8F8F8;}
</style>
<g>
	<path class="st0" d="M221,310.2l94.8-54.2L221,201.8V310.2z"/>
	<path class="st0" d="M496,0H16C7.7,0,1,6.7,1,15v482c0,8.3,6.7,15,15,15h480c8.3,0,15-6.7,15-15V15C511,6.7,504.3,0,496,0z M81,482
		H31v-50h50V482z M81,80H31V30h50V80z M161,482h-50v-50h50V482z M161,80h-50V30h50V80z M271,30h50v50h-50V30z M191,30h50v50h-50V30z
		 M241,482h-50v-50h50V482z M321,482h-50v-50h50V482z M213.4,349c-2.3,1.3-4.9,2-7.4,2c-2.6,0-5.2-0.7-7.5-2
		c-4.6-2.7-7.5-7.6-7.5-13V176c0-5.3,2.8-10.3,7.5-13s10.3-2.7,15-0.1l140,80c4.7,2.7,7.6,7.6,7.6,13s-2.9,10.4-7.6,13L213.4,349z
		 M401,482h-50v-50h50V482z M401,80h-50V30h50V80z M481,482h-50v-50h50V482z M481,80h-50V30h50V80z"/>
</g>
</svg>
